<mxfile host="Electron" agent="Mozilla/5.0 (Windows NT 10.0; Win64; x64) AppleWebKit/537.36 (KHTML, like Gecko) draw.io/27.0.9 Chrome/134.0.6998.205 Electron/35.4.0 Safari/537.36" version="27.0.9">
  <diagram name="Page-1" id="F1ly6i5QzwTnTRDF3UsP">
    <mxGraphModel dx="933" dy="597" grid="1" gridSize="10" guides="1" tooltips="1" connect="1" arrows="1" fold="1" page="1" pageScale="1" pageWidth="850" pageHeight="1100" math="0" shadow="0">
      <root>
        <mxCell id="0" />
        <mxCell id="1" parent="0" />
        <mxCell id="-CWlUcPeQihNMmIlv_xb-1" value="" style="rounded=0;whiteSpace=wrap;html=1;fillColor=none;strokeColor=#FF3399;dashed=1;fontColor=#FFFFFF;" vertex="1" parent="1">
          <mxGeometry x="410" y="220" width="152" height="490" as="geometry" />
        </mxCell>
        <mxCell id="-CWlUcPeQihNMmIlv_xb-2" value="Sources" style="rounded=1;whiteSpace=wrap;html=1;fontSize=24;strokeColor=none;fillColor=#FF3399;fontColor=#FFFFFF;" vertex="1" parent="1">
          <mxGeometry x="426" y="190" width="120" height="60" as="geometry" />
        </mxCell>
        <mxCell id="-CWlUcPeQihNMmIlv_xb-3" value="" style="image;aspect=fixed;html=1;points=[];align=center;fontSize=12;image=img/lib/azure2/general/Folder_Blank.svg;fontColor=#FFFFFF;" vertex="1" parent="1">
          <mxGeometry x="449" y="330" width="69" height="56.00000000000001" as="geometry" />
        </mxCell>
        <mxCell id="-CWlUcPeQihNMmIlv_xb-4" value="" style="image;aspect=fixed;html=1;points=[];align=center;fontSize=12;image=img/lib/azure2/general/Folder_Blank.svg;fontColor=#FFFFFF;" vertex="1" parent="1">
          <mxGeometry x="451.5" y="550" width="69" height="56.00000000000001" as="geometry" />
        </mxCell>
        <mxCell id="-CWlUcPeQihNMmIlv_xb-5" value="&lt;b&gt;CRM&lt;/b&gt;" style="rounded=1;whiteSpace=wrap;html=1;fillColor=none;strokeColor=none;fontColor=#FFFFFF;" vertex="1" parent="1">
          <mxGeometry x="451.5" y="386" width="64" height="24" as="geometry" />
        </mxCell>
        <mxCell id="-CWlUcPeQihNMmIlv_xb-6" value="&lt;b&gt;ERP&lt;/b&gt;" style="rounded=1;whiteSpace=wrap;html=1;fillColor=none;strokeColor=none;fontColor=#FFFFFF;" vertex="1" parent="1">
          <mxGeometry x="454" y="606" width="64" height="24" as="geometry" />
        </mxCell>
        <mxCell id="-CWlUcPeQihNMmIlv_xb-7" value="" style="rounded=1;whiteSpace=wrap;html=1;fillStyle=auto;fillColor=none;strokeColor=#994C00;gradientColor=none;arcSize=4;fontColor=#FFFFFF;" vertex="1" parent="1">
          <mxGeometry x="595" y="270" width="227" height="440" as="geometry" />
        </mxCell>
        <mxCell id="-CWlUcPeQihNMmIlv_xb-8" value="&lt;font style=&quot;font-size: 24px;&quot;&gt;&lt;b&gt;Bronze Layer&lt;/b&gt;&lt;/font&gt;" style="rounded=1;whiteSpace=wrap;html=1;fillColor=#994C00;fillStyle=auto;fontColor=#FFFFFF;" vertex="1" parent="1">
          <mxGeometry x="592" y="190" width="230" height="60" as="geometry" />
        </mxCell>
        <mxCell id="-CWlUcPeQihNMmIlv_xb-9" style="edgeStyle=orthogonalEdgeStyle;rounded=0;orthogonalLoop=1;jettySize=auto;html=1;exitX=0;exitY=0.5;exitDx=0;exitDy=0;fontColor=#FFFFFF;strokeColor=#FFFFFF;" edge="1" parent="1" source="-CWlUcPeQihNMmIlv_xb-11" target="-CWlUcPeQihNMmIlv_xb-3">
          <mxGeometry relative="1" as="geometry" />
        </mxCell>
        <mxCell id="-CWlUcPeQihNMmIlv_xb-10" style="edgeStyle=none;rounded=0;orthogonalLoop=1;jettySize=auto;html=1;exitX=1;exitY=0.5;exitDx=0;exitDy=0;entryX=0;entryY=0.5;entryDx=0;entryDy=0;fontColor=#FFFFFF;strokeColor=#FFFFFF;" edge="1" parent="1" source="-CWlUcPeQihNMmIlv_xb-11" target="-CWlUcPeQihNMmIlv_xb-31">
          <mxGeometry relative="1" as="geometry" />
        </mxCell>
        <mxCell id="-CWlUcPeQihNMmIlv_xb-11" value="&lt;font style=&quot;font-size: 16px;&quot;&gt;crm_cust_info&lt;/font&gt;" style="rounded=1;whiteSpace=wrap;html=1;fillColor=#994C00;strokeColor=#994C00;fontColor=#FFFFFF;" vertex="1" parent="1">
          <mxGeometry x="608.5" y="290" width="200" height="40" as="geometry" />
        </mxCell>
        <mxCell id="-CWlUcPeQihNMmIlv_xb-12" style="edgeStyle=none;rounded=0;orthogonalLoop=1;jettySize=auto;html=1;exitX=1;exitY=0.5;exitDx=0;exitDy=0;entryX=0;entryY=0.5;entryDx=0;entryDy=0;fontColor=#FFFFFF;strokeColor=#FFFFFF;" edge="1" parent="1" source="-CWlUcPeQihNMmIlv_xb-13" target="-CWlUcPeQihNMmIlv_xb-34">
          <mxGeometry relative="1" as="geometry" />
        </mxCell>
        <mxCell id="-CWlUcPeQihNMmIlv_xb-13" value="&lt;font style=&quot;font-size: 16px;&quot;&gt;crm_sales_details&lt;/font&gt;" style="rounded=1;whiteSpace=wrap;html=1;fillColor=#994C00;strokeColor=#994C00;fontColor=#FFFFFF;" vertex="1" parent="1">
          <mxGeometry x="608.5" y="400" width="200" height="40" as="geometry" />
        </mxCell>
        <mxCell id="-CWlUcPeQihNMmIlv_xb-14" style="edgeStyle=none;rounded=0;orthogonalLoop=1;jettySize=auto;html=1;exitX=1;exitY=0.5;exitDx=0;exitDy=0;entryX=0;entryY=0.5;entryDx=0;entryDy=0;fontColor=#FFFFFF;strokeColor=#FFFFFF;" edge="1" parent="1" source="-CWlUcPeQihNMmIlv_xb-15" target="-CWlUcPeQihNMmIlv_xb-37">
          <mxGeometry relative="1" as="geometry" />
        </mxCell>
        <mxCell id="-CWlUcPeQihNMmIlv_xb-15" value="&lt;font style=&quot;font-size: 16px;&quot;&gt;crm_prd_info&lt;/font&gt;" style="rounded=1;whiteSpace=wrap;html=1;fillColor=#994C00;strokeColor=#994C00;fontColor=#FFFFFF;" vertex="1" parent="1">
          <mxGeometry x="608.5" y="346" width="200" height="40" as="geometry" />
        </mxCell>
        <mxCell id="-CWlUcPeQihNMmIlv_xb-16" style="edgeStyle=orthogonalEdgeStyle;rounded=0;orthogonalLoop=1;jettySize=auto;html=1;exitX=0;exitY=0.5;exitDx=0;exitDy=0;fontColor=#FFFFFF;strokeColor=#FFFFFF;" edge="1" parent="1" source="-CWlUcPeQihNMmIlv_xb-18" target="-CWlUcPeQihNMmIlv_xb-4">
          <mxGeometry relative="1" as="geometry" />
        </mxCell>
        <mxCell id="-CWlUcPeQihNMmIlv_xb-17" style="edgeStyle=none;rounded=0;orthogonalLoop=1;jettySize=auto;html=1;exitX=1;exitY=0.5;exitDx=0;exitDy=0;entryX=0;entryY=0.5;entryDx=0;entryDy=0;fontColor=#FFFFFF;strokeColor=#FFFFFF;" edge="1" parent="1" source="-CWlUcPeQihNMmIlv_xb-18" target="-CWlUcPeQihNMmIlv_xb-40">
          <mxGeometry relative="1" as="geometry" />
        </mxCell>
        <mxCell id="-CWlUcPeQihNMmIlv_xb-18" value="&lt;font style=&quot;font-size: 16px;&quot;&gt;erp_cust_az12&lt;/font&gt;" style="rounded=1;whiteSpace=wrap;html=1;fillColor=#994C00;strokeColor=#994C00;fontColor=#FFFFFF;" vertex="1" parent="1">
          <mxGeometry x="607" y="520" width="200" height="40" as="geometry" />
        </mxCell>
        <mxCell id="-CWlUcPeQihNMmIlv_xb-19" style="edgeStyle=none;rounded=0;orthogonalLoop=1;jettySize=auto;html=1;exitX=1;exitY=0.5;exitDx=0;exitDy=0;entryX=0;entryY=0.5;entryDx=0;entryDy=0;fontColor=#FFFFFF;strokeColor=#FFFFFF;" edge="1" parent="1" source="-CWlUcPeQihNMmIlv_xb-20" target="-CWlUcPeQihNMmIlv_xb-42">
          <mxGeometry relative="1" as="geometry" />
        </mxCell>
        <mxCell id="-CWlUcPeQihNMmIlv_xb-20" value="&lt;font style=&quot;font-size: 16px;&quot;&gt;erp_loc_a101&lt;/font&gt;" style="rounded=1;whiteSpace=wrap;html=1;fillColor=#994C00;strokeColor=#994C00;fontColor=#FFFFFF;" vertex="1" parent="1">
          <mxGeometry x="607" y="575" width="200" height="40" as="geometry" />
        </mxCell>
        <mxCell id="-CWlUcPeQihNMmIlv_xb-21" style="edgeStyle=none;rounded=0;orthogonalLoop=1;jettySize=auto;html=1;exitX=1;exitY=0.5;exitDx=0;exitDy=0;entryX=0;entryY=0.5;entryDx=0;entryDy=0;fontColor=#FFFFFF;strokeColor=#FFFFFF;" edge="1" parent="1" source="-CWlUcPeQihNMmIlv_xb-22" target="-CWlUcPeQihNMmIlv_xb-44">
          <mxGeometry relative="1" as="geometry" />
        </mxCell>
        <mxCell id="-CWlUcPeQihNMmIlv_xb-22" value="&lt;font style=&quot;font-size: 16px;&quot;&gt;erp_px_cat_g1v2&lt;/font&gt;" style="rounded=1;whiteSpace=wrap;html=1;fillColor=#994C00;strokeColor=#994C00;fontColor=#FFFFFF;" vertex="1" parent="1">
          <mxGeometry x="607" y="630" width="200" height="40" as="geometry" />
        </mxCell>
        <mxCell id="-CWlUcPeQihNMmIlv_xb-23" style="edgeStyle=orthogonalEdgeStyle;rounded=0;orthogonalLoop=1;jettySize=auto;html=1;exitX=0;exitY=0.5;exitDx=0;exitDy=0;entryX=0.987;entryY=0.493;entryDx=0;entryDy=0;entryPerimeter=0;fontColor=#FFFFFF;strokeColor=#FFFFFF;" edge="1" parent="1" source="-CWlUcPeQihNMmIlv_xb-15" target="-CWlUcPeQihNMmIlv_xb-3">
          <mxGeometry relative="1" as="geometry" />
        </mxCell>
        <mxCell id="-CWlUcPeQihNMmIlv_xb-24" style="edgeStyle=orthogonalEdgeStyle;rounded=0;orthogonalLoop=1;jettySize=auto;html=1;exitX=0;exitY=0.5;exitDx=0;exitDy=0;entryX=1.014;entryY=0.471;entryDx=0;entryDy=0;entryPerimeter=0;fontColor=#FFFFFF;strokeColor=#FFFFFF;" edge="1" parent="1" source="-CWlUcPeQihNMmIlv_xb-13" target="-CWlUcPeQihNMmIlv_xb-3">
          <mxGeometry relative="1" as="geometry" />
        </mxCell>
        <mxCell id="-CWlUcPeQihNMmIlv_xb-25" style="edgeStyle=orthogonalEdgeStyle;rounded=0;orthogonalLoop=1;jettySize=auto;html=1;exitX=0;exitY=0.5;exitDx=0;exitDy=0;entryX=0.96;entryY=0.493;entryDx=0;entryDy=0;entryPerimeter=0;fontColor=#FFFFFF;strokeColor=#FFFFFF;" edge="1" parent="1" source="-CWlUcPeQihNMmIlv_xb-20" target="-CWlUcPeQihNMmIlv_xb-4">
          <mxGeometry relative="1" as="geometry" />
        </mxCell>
        <mxCell id="-CWlUcPeQihNMmIlv_xb-26" style="edgeStyle=orthogonalEdgeStyle;rounded=0;orthogonalLoop=1;jettySize=auto;html=1;exitX=0;exitY=0.75;exitDx=0;exitDy=0;entryX=0.996;entryY=0.493;entryDx=0;entryDy=0;entryPerimeter=0;fontColor=#FFFFFF;strokeColor=#FFFFFF;" edge="1" parent="1" source="-CWlUcPeQihNMmIlv_xb-22" target="-CWlUcPeQihNMmIlv_xb-4">
          <mxGeometry relative="1" as="geometry" />
        </mxCell>
        <mxCell id="-CWlUcPeQihNMmIlv_xb-27" value="" style="rounded=1;whiteSpace=wrap;html=1;fillStyle=auto;fillColor=none;strokeColor=#98A697;gradientColor=none;arcSize=4;fontColor=#FFFFFF;" vertex="1" parent="1">
          <mxGeometry x="875" y="270" width="227" height="440" as="geometry" />
        </mxCell>
        <mxCell id="-CWlUcPeQihNMmIlv_xb-28" value="" style="rounded=1;whiteSpace=wrap;html=1;fillStyle=auto;fillColor=none;strokeColor=#FFFF66;gradientColor=none;arcSize=4;fontColor=#000000;" vertex="1" parent="1">
          <mxGeometry x="1155.37" y="270" width="227" height="440" as="geometry" />
        </mxCell>
        <mxCell id="-CWlUcPeQihNMmIlv_xb-29" value="&lt;font style=&quot;font-size: 24px;&quot;&gt;&lt;b&gt;Silver Layer&lt;/b&gt;&lt;/font&gt;" style="rounded=1;whiteSpace=wrap;html=1;fillColor=#98A697;fillStyle=auto;strokeColor=#98A697;fontColor=#FFFFFF;" vertex="1" parent="1">
          <mxGeometry x="872" y="190" width="230" height="60" as="geometry" />
        </mxCell>
        <mxCell id="-CWlUcPeQihNMmIlv_xb-30" value="&lt;font style=&quot;font-size: 24px;&quot;&gt;&lt;b&gt;Gold Layer&lt;/b&gt;&lt;/font&gt;" style="rounded=1;whiteSpace=wrap;html=1;fillColor=#FFFF66;fillStyle=auto;strokeColor=#FFFF66;fontColor=#000000;" vertex="1" parent="1">
          <mxGeometry x="1152.37" y="190" width="230" height="60" as="geometry" />
        </mxCell>
        <mxCell id="-CWlUcPeQihNMmIlv_xb-31" value="&lt;font style=&quot;font-size: 16px;&quot;&gt;crm_cust_info&lt;/font&gt;" style="rounded=1;whiteSpace=wrap;html=1;fillColor=#98A697;strokeColor=#98A697;fontColor=#FFFFFF;" vertex="1" parent="1">
          <mxGeometry x="888.5" y="290" width="200" height="40" as="geometry" />
        </mxCell>
        <mxCell id="-CWlUcPeQihNMmIlv_xb-32" value="&lt;font style=&quot;font-size: 16px;&quot;&gt;fact_sales&lt;/font&gt;" style="rounded=1;whiteSpace=wrap;html=1;fillColor=#FFFF66;strokeColor=#FFFF66;fontColor=#000000;" vertex="1" parent="1">
          <mxGeometry x="1168.87" y="360" width="200" height="40" as="geometry" />
        </mxCell>
        <mxCell id="-CWlUcPeQihNMmIlv_xb-33" style="edgeStyle=none;rounded=0;orthogonalLoop=1;jettySize=auto;html=1;exitX=1;exitY=0.5;exitDx=0;exitDy=0;entryX=0;entryY=0.5;entryDx=0;entryDy=0;jumpStyle=gap;fontColor=#FFFFFF;strokeColor=#FFFFFF;" edge="1" parent="1" source="-CWlUcPeQihNMmIlv_xb-34" target="-CWlUcPeQihNMmIlv_xb-32">
          <mxGeometry relative="1" as="geometry" />
        </mxCell>
        <mxCell id="-CWlUcPeQihNMmIlv_xb-34" value="&lt;font style=&quot;font-size: 16px;&quot;&gt;crm_sales_details&lt;/font&gt;" style="rounded=1;whiteSpace=wrap;html=1;fillColor=#98A697;strokeColor=#98A697;fontColor=#FFFFFF;" vertex="1" parent="1">
          <mxGeometry x="888.5" y="400" width="200" height="40" as="geometry" />
        </mxCell>
        <mxCell id="-CWlUcPeQihNMmIlv_xb-35" value="&lt;font style=&quot;font-size: 16px;&quot;&gt;dim_products&lt;/font&gt;" style="rounded=1;whiteSpace=wrap;html=1;fillColor=#FFFF66;strokeColor=#FFFF66;fontColor=#000000;" vertex="1" parent="1">
          <mxGeometry x="1167" y="566" width="200" height="40" as="geometry" />
        </mxCell>
        <mxCell id="-CWlUcPeQihNMmIlv_xb-36" style="edgeStyle=none;rounded=0;orthogonalLoop=1;jettySize=auto;html=1;exitX=1;exitY=0.5;exitDx=0;exitDy=0;entryX=0;entryY=0.5;entryDx=0;entryDy=0;jumpStyle=gap;fontColor=#FFFFFF;strokeColor=#FFFFFF;" edge="1" parent="1" source="-CWlUcPeQihNMmIlv_xb-37" target="-CWlUcPeQihNMmIlv_xb-35">
          <mxGeometry relative="1" as="geometry" />
        </mxCell>
        <mxCell id="-CWlUcPeQihNMmIlv_xb-37" value="&lt;font style=&quot;font-size: 16px;&quot;&gt;crm_prd_info&lt;/font&gt;" style="rounded=1;whiteSpace=wrap;html=1;fillColor=#98A697;strokeColor=#98A697;fontColor=#FFFFFF;" vertex="1" parent="1">
          <mxGeometry x="888.5" y="346" width="200" height="40" as="geometry" />
        </mxCell>
        <mxCell id="-CWlUcPeQihNMmIlv_xb-38" value="&lt;font style=&quot;font-size: 16px;&quot;&gt;dim_customers&lt;/font&gt;" style="rounded=1;whiteSpace=wrap;html=1;fillColor=#FFFF66;strokeColor=#FFFF66;fontColor=#000000;" vertex="1" parent="1">
          <mxGeometry x="1167" y="466" width="200" height="40" as="geometry" />
        </mxCell>
        <mxCell id="-CWlUcPeQihNMmIlv_xb-39" style="edgeStyle=none;rounded=0;orthogonalLoop=1;jettySize=auto;html=1;exitX=1;exitY=0.5;exitDx=0;exitDy=0;entryX=0;entryY=0.5;entryDx=0;entryDy=0;jumpStyle=gap;fontColor=#FFFFFF;strokeColor=#FFFFFF;" edge="1" parent="1" source="-CWlUcPeQihNMmIlv_xb-40" target="-CWlUcPeQihNMmIlv_xb-38">
          <mxGeometry relative="1" as="geometry" />
        </mxCell>
        <mxCell id="-CWlUcPeQihNMmIlv_xb-40" value="&lt;font style=&quot;font-size: 16px;&quot;&gt;erp_cust_az12&lt;/font&gt;" style="rounded=1;whiteSpace=wrap;html=1;fillColor=#98A697;strokeColor=#98A697;fontColor=#FFFFFF;" vertex="1" parent="1">
          <mxGeometry x="887" y="520" width="200" height="40" as="geometry" />
        </mxCell>
        <mxCell id="-CWlUcPeQihNMmIlv_xb-41" style="edgeStyle=none;rounded=0;orthogonalLoop=1;jettySize=auto;html=1;exitX=1;exitY=0.5;exitDx=0;exitDy=0;jumpStyle=gap;fontColor=#FFFFFF;strokeColor=#FFFFFF;" edge="1" parent="1" source="-CWlUcPeQihNMmIlv_xb-42">
          <mxGeometry relative="1" as="geometry">
            <mxPoint x="1162" y="490" as="targetPoint" />
          </mxGeometry>
        </mxCell>
        <mxCell id="-CWlUcPeQihNMmIlv_xb-42" value="&lt;font style=&quot;font-size: 16px;&quot;&gt;erp_loc_a101&lt;/font&gt;" style="rounded=1;whiteSpace=wrap;html=1;fillColor=#98A697;strokeColor=#98A697;fontColor=#FFFFFF;" vertex="1" parent="1">
          <mxGeometry x="887" y="575" width="200" height="40" as="geometry" />
        </mxCell>
        <mxCell id="-CWlUcPeQihNMmIlv_xb-43" style="edgeStyle=none;rounded=0;orthogonalLoop=1;jettySize=auto;html=1;exitX=1;exitY=0.5;exitDx=0;exitDy=0;entryX=0;entryY=0.5;entryDx=0;entryDy=0;jumpStyle=gap;fontColor=#FFFFFF;strokeColor=#FFFFFF;" edge="1" parent="1" source="-CWlUcPeQihNMmIlv_xb-44" target="-CWlUcPeQihNMmIlv_xb-35">
          <mxGeometry relative="1" as="geometry" />
        </mxCell>
        <mxCell id="-CWlUcPeQihNMmIlv_xb-44" value="&lt;font style=&quot;font-size: 16px;&quot;&gt;erp_px_cat_g1v2&lt;/font&gt;" style="rounded=1;whiteSpace=wrap;html=1;fillColor=#98A697;strokeColor=#98A697;fontColor=#FFFFFF;" vertex="1" parent="1">
          <mxGeometry x="887" y="630" width="200" height="40" as="geometry" />
        </mxCell>
        <mxCell id="-CWlUcPeQihNMmIlv_xb-45" value="" style="endArrow=classic;html=1;rounded=0;exitX=1;exitY=0.5;exitDx=0;exitDy=0;entryX=0;entryY=0.5;entryDx=0;entryDy=0;jumpStyle=gap;fontColor=#FFFFFF;strokeColor=#FFFFFF;" edge="1" parent="1" source="-CWlUcPeQihNMmIlv_xb-31" target="-CWlUcPeQihNMmIlv_xb-38">
          <mxGeometry width="50" height="50" relative="1" as="geometry">
            <mxPoint x="1092" y="320" as="sourcePoint" />
            <mxPoint x="1122" y="440" as="targetPoint" />
          </mxGeometry>
        </mxCell>
      </root>
    </mxGraphModel>
  </diagram>
</mxfile>
